<svg width="188" height="27" viewBox="0 0 188 27" fill="none" xmlns="http://www.w3.org/2000/svg">
<path d="M8.688 0.176C9.90133 0.176 10.956 0.353333 11.852 0.708C12.748 1.044 13.6253 1.56667 14.484 2.276L12.44 4.656C11.32 3.74133 10.144 3.284 8.912 3.284C7.53067 3.284 6.42933 3.85333 5.608 4.992C4.80533 6.112 4.404 7.876 4.404 10.284C4.404 12.636 4.80533 14.3813 5.608 15.52C6.42933 16.64 7.54 17.2 8.94 17.2C9.668 17.2 10.3307 17.0693 10.928 16.808C11.5253 16.528 12.1507 16.136 12.804 15.632L14.708 18.012C14.0173 18.7213 13.1587 19.3093 12.132 19.776C11.124 20.224 10.004 20.448 8.772 20.448C7.036 20.448 5.51467 20.056 4.208 19.272C2.90133 18.488 1.884 17.34 1.156 15.828C0.428 14.2973 0.0640001 12.4493 0.0640001 10.284C0.0640001 8.17467 0.437333 6.364 1.184 4.852C1.93067 3.32133 2.95733 2.164 4.264 1.38C5.57067 0.577333 7.04533 0.176 8.688 0.176ZM23.0132 4.712C25.2346 4.712 26.9706 5.412 28.2212 6.812C29.4719 8.19333 30.0972 10.116 30.0972 12.58C30.0972 14.148 29.8079 15.5293 29.2292 16.724C28.6692 17.9 27.8479 18.8147 26.7652 19.468C25.7012 20.1213 24.4412 20.448 22.9852 20.448C20.7639 20.448 19.0186 19.7573 17.7492 18.376C16.4986 16.976 15.8732 15.044 15.8732 12.58C15.8732 11.012 16.1532 9.64 16.7132 8.464C17.2919 7.26933 18.1132 6.34533 19.1772 5.692C20.2599 5.03867 21.5386 4.712 23.0132 4.712ZM23.0132 7.68C22.0052 7.68 21.2492 8.08133 20.7452 8.884C20.2599 9.668 20.0172 10.9 20.0172 12.58C20.0172 14.26 20.2599 15.5013 20.7452 16.304C21.2492 17.088 21.9959 17.48 22.9852 17.48C23.9746 17.48 24.7119 17.088 25.1972 16.304C25.7012 15.5013 25.9532 14.26 25.9532 12.58C25.9532 10.9 25.7106 9.668 25.2252 8.884C24.7399 8.08133 24.0026 7.68 23.0132 7.68ZM49.4688 4.712C50.6448 4.712 51.5875 5.11333 52.2968 5.916C53.0248 6.71867 53.3888 7.81067 53.3888 9.192V20H49.4128V9.864C49.4128 8.408 48.9275 7.68 47.9568 7.68C47.4341 7.68 46.9768 7.85733 46.5848 8.212C46.1928 8.548 45.8008 9.06133 45.4088 9.752V20H41.4328V9.864C41.4328 8.408 40.9474 7.68 39.9768 7.68C39.4541 7.68 38.9874 7.85733 38.5768 8.212C38.1848 8.548 37.7928 9.06133 37.4008 9.752V20H33.4248V5.16H36.8968L37.1768 7.036C38.3154 5.48667 39.7528 4.712 41.4888 4.712C42.3288 4.712 43.0568 4.92667 43.6728 5.356C44.2888 5.76667 44.7461 6.364 45.0448 7.148C45.6421 6.34533 46.2955 5.73867 47.0048 5.328C47.7141 4.91733 48.5354 4.712 49.4688 4.712ZM65.3904 4.712C67.2571 4.712 68.6478 5.40267 69.5624 6.784C70.4771 8.14667 70.9344 10.0693 70.9344 12.552C70.9344 14.064 70.7011 15.4173 70.2344 16.612C69.7678 17.8067 69.0864 18.7493 68.1904 19.44C67.3131 20.112 66.2678 20.448 65.0544 20.448C63.5238 20.448 62.2918 19.916 61.3584 18.852V25.712L57.3824 26.16V5.16H60.8824L61.1064 6.868C61.6664 6.14 62.3198 5.59867 63.0664 5.244C63.8131 4.88933 64.5878 4.712 65.3904 4.712ZM63.8784 17.48C65.8198 17.48 66.7904 15.8467 66.7904 12.58C66.7904 10.788 66.5664 9.51867 66.1184 8.772C65.6891 8.02533 65.0451 7.652 64.1864 7.652C63.0851 7.652 62.1424 8.296 61.3584 9.584V16.024C61.9931 16.9947 62.8331 17.48 63.8784 17.48ZM85.4627 15.884C85.4627 16.4627 85.5467 16.892 85.7147 17.172C85.8827 17.4333 86.1627 17.6293 86.5547 17.76L85.7147 20.392C84.8373 20.3173 84.1187 20.112 83.5587 19.776C83.0173 19.44 82.5973 18.9173 82.2987 18.208C81.328 19.7013 79.844 20.448 77.8467 20.448C76.372 20.448 75.196 20.028 74.3187 19.188C73.46 18.3293 73.0307 17.2187 73.0307 15.856C73.0307 14.232 73.6187 12.9907 74.7947 12.132C75.9707 11.2733 77.66 10.844 79.8627 10.844H81.5707V10.116C81.5707 9.20133 81.3653 8.56667 80.9547 8.212C80.544 7.85733 79.8627 7.68 78.9107 7.68C77.8653 7.68 76.5587 7.94133 74.9907 8.464L74.0947 5.804C75.9427 5.076 77.772 4.712 79.5827 4.712C81.5987 4.712 83.0827 5.15067 84.0347 6.028C84.9867 6.88667 85.4627 8.17467 85.4627 9.892V15.884ZM78.9387 17.592C80.0587 17.592 80.936 17.0413 81.5707 15.94V13.112H80.2547C78.108 13.112 77.0347 13.9147 77.0347 15.52C77.0347 16.1733 77.1933 16.6867 77.5107 17.06C77.8467 17.4147 78.3227 17.592 78.9387 17.592ZM98.0272 4.712C99.3338 4.712 100.351 5.11333 101.079 5.916C101.826 6.7 102.199 7.792 102.199 9.192V20H98.2232V9.864C98.2232 9.06133 98.0832 8.50133 97.8032 8.184C97.5232 7.848 97.1218 7.68 96.5992 7.68C96.0392 7.68 95.5258 7.85733 95.0592 8.212C94.5925 8.548 94.1445 9.06133 93.7152 9.752V20H89.7392V5.16H93.2112L93.5192 7.036C94.7512 5.48667 96.2538 4.712 98.0272 4.712ZM113.741 20.028C113.143 21.9133 112.201 23.3693 110.913 24.396C109.643 25.4227 107.917 26.0107 105.733 26.16L105.313 23.304C106.731 23.1173 107.767 22.7813 108.421 22.296C109.093 21.8107 109.643 21.0453 110.073 20H108.701L104.081 5.16H108.309L111.277 17.424L114.413 5.16H118.529L113.741 20.028ZM132.181 16.696H139.853L139.405 20H128.065V0.623999H132.181V16.696ZM148.12 4.712C150.341 4.712 152.077 5.412 153.328 6.812C154.578 8.19333 155.204 10.116 155.204 12.58C155.204 14.148 154.914 15.5293 154.336 16.724C153.776 17.9 152.954 18.8147 151.872 19.468C150.808 20.1213 149.548 20.448 148.092 20.448C145.87 20.448 144.125 19.7573 142.856 18.376C141.605 16.976 140.98 15.044 140.98 12.58C140.98 11.012 141.26 9.64 141.82 8.464C142.398 7.26933 143.22 6.34533 144.284 5.692C145.366 5.03867 146.645 4.712 148.12 4.712ZM148.12 7.68C147.112 7.68 146.356 8.08133 145.852 8.884C145.366 9.668 145.124 10.9 145.124 12.58C145.124 14.26 145.366 15.5013 145.852 16.304C146.356 17.088 147.102 17.48 148.092 17.48C149.081 17.48 149.818 17.088 150.304 16.304C150.808 15.5013 151.06 14.26 151.06 12.58C151.06 10.9 150.817 9.668 150.332 8.884C149.846 8.08133 149.109 7.68 148.12 7.68ZM171.859 5.972C170.889 6.34533 169.461 6.532 167.575 6.532C168.509 6.94267 169.199 7.456 169.647 8.072C170.095 8.66933 170.319 9.42533 170.319 10.34C170.319 11.292 170.067 12.1507 169.563 12.916C169.078 13.6627 168.369 14.2507 167.435 14.68C166.521 15.1093 165.447 15.324 164.215 15.324C163.562 15.324 162.983 15.2587 162.479 15.128C162.106 15.3707 161.919 15.6973 161.919 16.108C161.919 16.4067 162.031 16.6493 162.255 16.836C162.498 17.004 162.955 17.088 163.627 17.088H165.895C166.997 17.088 167.958 17.2747 168.779 17.648C169.619 18.0027 170.263 18.5067 170.711 19.16C171.178 19.7947 171.411 20.5227 171.411 21.344C171.411 22.856 170.758 24.032 169.451 24.872C168.163 25.7307 166.297 26.16 163.851 26.16C162.097 26.16 160.706 25.9733 159.679 25.6C158.671 25.2453 157.962 24.7227 157.551 24.032C157.141 23.3413 156.935 22.4733 156.935 21.428H160.491C160.491 21.9133 160.585 22.296 160.771 22.576C160.958 22.8747 161.294 23.0893 161.779 23.22C162.283 23.3693 163.002 23.444 163.935 23.444C165.223 23.444 166.119 23.2853 166.623 22.968C167.146 22.6507 167.407 22.2027 167.407 21.624C167.407 21.1013 167.211 20.7 166.819 20.42C166.427 20.14 165.849 20 165.083 20H162.899C161.425 20 160.323 19.7293 159.595 19.188C158.867 18.628 158.503 17.928 158.503 17.088C158.503 16.5653 158.653 16.0613 158.951 15.576C159.269 15.072 159.698 14.652 160.239 14.316C159.325 13.812 158.653 13.224 158.223 12.552C157.813 11.8613 157.607 11.04 157.607 10.088C157.607 9.00533 157.869 8.06267 158.391 7.26C158.933 6.43867 159.679 5.81333 160.631 5.384C161.602 4.936 162.703 4.712 163.935 4.712C165.466 4.74933 166.726 4.61867 167.715 4.32C168.705 4.02133 169.759 3.55467 170.879 2.92L171.859 5.972ZM164.019 7.372C163.273 7.372 162.675 7.61467 162.227 8.1C161.798 8.56667 161.583 9.21067 161.583 10.032C161.583 10.872 161.798 11.5347 162.227 12.02C162.675 12.5053 163.282 12.748 164.047 12.748C164.85 12.748 165.457 12.5147 165.867 12.048C166.278 11.5813 166.483 10.8907 166.483 9.976C166.483 8.24 165.662 7.372 164.019 7.372ZM180.23 4.712C182.452 4.712 184.188 5.412 185.438 6.812C186.689 8.19333 187.314 10.116 187.314 12.58C187.314 14.148 187.025 15.5293 186.446 16.724C185.886 17.9 185.065 18.8147 183.982 19.468C182.918 20.1213 181.658 20.448 180.202 20.448C177.981 20.448 176.236 19.7573 174.966 18.376C173.716 16.976 173.09 15.044 173.09 12.58C173.09 11.012 173.37 9.64 173.93 8.464C174.509 7.26933 175.33 6.34533 176.394 5.692C177.477 5.03867 178.756 4.712 180.23 4.712ZM180.23 7.68C179.222 7.68 178.466 8.08133 177.962 8.884C177.477 9.668 177.234 10.9 177.234 12.58C177.234 14.26 177.477 15.5013 177.962 16.304C178.466 17.088 179.213 17.48 180.202 17.48C181.192 17.48 181.929 17.088 182.414 16.304C182.918 15.5013 183.17 14.26 183.17 12.58C183.17 10.9 182.928 9.668 182.442 8.884C181.957 8.08133 181.22 7.68 180.23 7.68Z" fill="#FF3B30"/>
</svg>
